# xmcd
#
# Track frame offsets: 
#        150
#        12423
#        23329
#        33414
#        45876
#        57563
#        68369
#        79392
#        88823
#        98781
#        107854
#        118802
#        127957
#        137070
#        148444
#        160268
#        170850
#        183152
#        193810
#        203974
#        216333
#        225368
#        235487
#        248599
#        258903
#        270146
#        283585
#        292167
#        302981
#        312067
#        320888
#        329876
#
# Disc length: 4556 seconds
#
# Revision: 1
# Processed by: cddbd v1.5.2PL0 Copyright (c) Steve Scherf et al.
# Submitted via: ExactAudioCopy v1.0b1
#
DISCID=e111ca20
DTITLE=Loretta Lynn - Blue Kentucky Girl - I Like 'em Country
DYEAR=2013
DGENRE=Country
TTITLE0=Blue Kentucky Girl (stereo)
TTITLE1=Then And Only Then (stereo)
TTITLE2=I Still Miss Someone (stereo)
TTITLE3=Night Girl (stereo)
TTITLE4=Love's Been Here And Gone (stereo)
TTITLE5=Farther To Go (stereo)
TTITLE6=The Race Is On (stereo)
TTITLE7=I Won't Forget You (stereo)
TTITLE8=Two Steps Forward (stereo)
TTITLE9=Send Me The Pillow You Dream On (stereo)
TTITLE10=Beginning Of The End (stereo)
TTITLE11=Today (stereo)
TTITLE12=Two Mules Pull This Wagon (stereo)
TTITLE13=It's Been So Long Darling (stereo)
TTITLE14=Sometimes You Just Can't Win (stereo)
TTITLE15=If Teardrops Were Pennies (stereo)
TTITLE16=Your Cheatin' Heart (stereo)
TTITLE17=Go On And Go (stereo)
TTITLE18=Cry Cry Cry (stereo)
TTITLE19=The Home You're Tearin' Down (stereo)
TTITLE20=Hurtin' For Certain (stereo)
TTITLE21=Today Has Been A Day (stereo)
TTITLE22=Jealous Heart (stereo)
TTITLE23=Dear Uncle Sam (stereo)
TTITLE24=Put It Off Until Tomorrow (stereo)
TTITLE25=God Give Me A Heart To Forgive (stereo)
TTITLE26=Keep Your Change (stereo)
TTITLE27=Someone Before Me (stereo)
TTITLE28=A Man I Hardly Know (stereo)
TTITLE29=Tippy Toeing (stereo)
TTITLE30=It's Another World (stereo)
TTITLE31=If You're Not Gone Too Long (stereo)
EXTD=
EXTT0=
EXTT1=
EXTT2=
EXTT3=
EXTT4=
EXTT5=
EXTT6=
EXTT7=
EXTT8=
EXTT9=
EXTT10=
EXTT11=
EXTT12=
EXTT13=
EXTT14=
EXTT15=
EXTT16=
EXTT17=
EXTT18=
EXTT19=
EXTT20=
EXTT21=
EXTT22=
EXTT23=
EXTT24=
EXTT25=
EXTT26=
EXTT27=
EXTT28=
EXTT29=
EXTT30=
EXTT31=
PLAYORDER=
